<?xml version="1.0" encoding="UTF-8"?>
<svg id="Capa_2" data-name="Capa 2" xmlns="http://www.w3.org/2000/svg" viewBox="0 0 818.57 162.54">
  <defs>
    <style>
      .cls-1 {
        fill: #1a1a1a;
      }
    </style>
  </defs>
  <g id="Capa_1-2" data-name="Capa 1">
    <g>
      <path class="cls-1" d="M81.27,0C36.38,0,0,36.38,0,81.27s36.38,81.27,81.27,81.27,81.27-36.38,81.27-81.27S126.15,0,81.27,0ZM133.23,112.54c-5.74,5.74-15.05,5.74-20.79,0l-10.39-10.39-10.39,10.39h0c-5.74,5.74-15.05,5.74-20.79,0l-10.39-10.39-10.39,10.39c-5.74,5.74-15.05,5.74-20.79,0h0s20.79-20.79,20.79-20.79h0c5.74-5.74,15.05-5.74,20.79,0h0s10.39,10.39,10.39,10.39l10.39-10.39c5.74-5.74,15.05-5.74,20.79,0h0s20.79,20.79,20.79,20.79h0ZM112.45,70.79c-5.74,5.74-15.05,5.74-20.79,0l-10.39-10.39-10.39,10.39h0c-5.74,5.74-15.05,5.74-20.79,0h0s-20.79-20.79-20.79-20.79c5.74-5.74,15.05-5.74,20.79,0l10.39,10.39,10.39-10.39c5.74-5.74,15.05-5.74,20.79,0h0l10.39,10.39,10.39-10.39c5.74-5.74,15.05-5.74,20.79,0l-20.79,20.79Z"/>
      <g>
        <path class="cls-1" d="M193.45,44.5h15.39l8.91,59.64h1.59l12.95-59.64h16.98l12.95,59.64h1.59l8.91-59.64h15.39l-13.8,72.16h-22.18l-11.36-54.87-11.35,54.87h-22.18l-13.8-72.16Z"/>
        <path class="cls-1" d="M289.35,100.53c0-5.52,1.47-9.5,4.4-11.94,2.94-2.44,7.66-3.87,14.17-4.3l11.36-.85v-3.29c0-2.12-.48-3.61-1.43-4.46-.96-.85-2.56-1.27-4.83-1.27s-5.55.09-9.66.26c-4.1.18-7.53.37-10.29.58l-.42-9.87c7.64-2.05,14.86-3.08,21.65-3.08s11.69,1.42,14.7,4.25c3.01,2.83,4.51,7.36,4.51,13.58v22.07c.14,1.77.44,2.97.9,3.61.46.64,1.33,1.1,2.6,1.38l-.42,10.72c-3.68,0-6.6-.25-8.75-.74-2.16-.5-4.3-1.49-6.42-2.97-5.17,2.48-10.37,3.71-15.6,3.71-10.97,0-16.45-5.8-16.45-17.4ZM317.69,105.1l1.59-.43v-11.35l-9.66.85c-3.96.36-5.94,2.48-5.94,6.37s1.73,5.84,5.2,5.84c2.69,0,5.62-.43,8.81-1.27Z"/>
        <path class="cls-1" d="M352.74,116.03c-2.26-1.27-3.89-3.36-4.88-6.26-.99-2.9-1.49-6.9-1.49-11.99v-22.07h-6.26v-12.1h6.26v-14.75h14.22v14.75h13.05v12.1h-13.05v21.75c0,2.76.25,4.76.74,6,.49,1.24,1.73,1.82,3.71,1.75l8.07-.21.64,11.36c-2.83.64-5.04,1.06-6.63,1.27-1.59.21-3.2.32-4.83.32-4.1,0-7.29-.64-9.55-1.91Z"/>
        <path class="cls-1" d="M390.99,116.03c-2.26-1.27-3.89-3.36-4.88-6.26-.99-2.9-1.49-6.9-1.49-11.99v-22.07h-6.26v-12.1h6.26v-14.75h14.22v14.75h13.05v12.1h-13.05v21.75c0,2.76.25,4.76.74,6,.49,1.24,1.73,1.82,3.71,1.75l8.07-.21.64,11.36c-2.83.64-5.04,1.06-6.63,1.27-1.59.21-3.2.32-4.83.32-4.1,0-7.29-.64-9.55-1.91Z"/>
        <path class="cls-1" d="M440.97,42.48h0c3.93,0,7.11,3.18,7.11,7.11v.11c0,3.93-3.18,7.11-7.11,7.11h0c-3.93,0-7.11-3.18-7.11-7.11v-.11c0-3.93,3.18-7.11,7.11-7.11ZM433.86,63.6h14.22v53.06h-14.22v-53.06Z"/>
        <path class="cls-1" d="M460.98,116.03l-3.4-.64.42-11.88c8.56,1.13,14.79,1.7,18.68,1.7,2.62,0,4.69-.28,6.21-.85,1.52-.56,2.28-1.63,2.28-3.18,0-1.41-.73-2.44-2.18-3.08-1.45-.64-3.87-1.24-7.27-1.8-1.27-.14-2.16-.28-2.65-.42-3.54-.64-6.44-1.43-8.7-2.39-2.27-.96-4.1-2.48-5.52-4.56-1.42-2.09-2.12-5-2.12-8.75,0-6.01,1.84-10.47,5.52-13.37,3.68-2.9,8.74-4.35,15.18-4.35,3.82,0,9.45.67,16.87,2.02l3.5.64-.21,11.78c-8.56-1.13-14.89-1.7-19-1.7-2.41,0-4.3.25-5.68.74-1.38.5-2.07,1.45-2.07,2.87,0,1.49.71,2.53,2.12,3.13,1.41.6,3.71,1.19,6.9,1.75l3.71.64c5.66,1.13,9.69,2.81,12.1,5.04,2.4,2.23,3.61,5.82,3.61,10.77,0,6.09-1.73,10.58-5.2,13.48-3.47,2.9-8.81,4.35-16.02,4.35-4.67,0-10.37-.64-17.09-1.91Z"/>
        <path class="cls-1" d="M598.94,44.5v72.16h-14.64v-55.82h-1.59l-14.12,52.64h-14.64l-14.12-52.64h-1.59v55.82h-14.64V44.5h24.94l12.74,52.53,12.74-52.53h24.94Z"/>
        <path class="cls-1" d="M614.51,110.67c-4.14-4.84-6.21-11.73-6.21-20.64s2.07-15.67,6.21-20.48c4.14-4.81,10.21-7.22,18.2-7.22s14.06,2.41,18.2,7.22c4.14,4.81,6.21,11.64,6.21,20.48s-2.07,15.8-6.21,20.64c-4.14,4.85-10.21,7.27-18.2,7.27s-14.06-2.42-18.2-7.27ZM640.24,102.12c1.63-2.47,2.44-6.51,2.44-12.1s-.81-9.59-2.44-11.99c-1.63-2.4-4.14-3.61-7.53-3.61s-5.91,1.2-7.54,3.61c-1.63,2.41-2.44,6.4-2.44,11.99s.81,9.62,2.44,12.1c1.63,2.48,4.14,3.71,7.54,3.71s5.91-1.24,7.53-3.71Z"/>
        <path class="cls-1" d="M665.24,63.6h14.11v2.97c2.69-1.56,5.08-2.65,7.16-3.29,2.09-.64,4.33-.96,6.74-.96,6.51,0,11.14,2.09,13.9,6.26,2.76,4.18,4.14,10.61,4.14,19.31v28.76h-14.22v-28.33c0-4.88-.58-8.31-1.75-10.29-1.17-1.98-3.38-2.97-6.63-2.97-2.33,0-4.99.5-7.96,1.48l-1.27.43v39.69h-14.22v-53.06Z"/>
        <path class="cls-1" d="M724.91,111.67c-3.68-4.17-5.52-10.93-5.52-20.27s1.93-17.05,5.78-21.86c3.86-4.81,9.85-7.22,17.99-7.22,7.5,0,13.18,2,17.03,6,3.86,4,5.78,9.99,5.78,17.99l-1.06,9.87h-31.2c.14,2.48.58,4.37,1.33,5.68.74,1.31,1.95,2.23,3.61,2.76,1.66.53,3.98.8,6.95.8,2.33,0,5.13-.07,8.38-.21,3.25-.14,5.62-.28,7.11-.42l2.97-.32.21,10.51c-8,1.98-15.14,2.97-21.44,2.97-8.28,0-14.26-2.09-17.93-6.26ZM751.97,85.36c0-4.24-.66-7.2-1.96-8.86-1.31-1.66-3.63-2.49-6.95-2.49s-5.8.87-7.22,2.6c-1.42,1.73-2.16,4.65-2.23,8.75h18.36Z"/>
        <path class="cls-1" d="M791.83,116.66h-9.98l-13.05-53.06h14.01l9.66,40.96h2.44l9.66-40.96h14.01l-18.68,75.35h-13.9l5.84-22.29Z"/>
      </g>
    </g>
  </g>
</svg>